<?xml version="1.0" encoding="utf-8"?>
<!-- Generator: Adobe Illustrator 24.0.3, SVG Export Plug-In . SVG Version: 6.00 Build 0)  -->
<!DOCTYPE svg PUBLIC "-//W3C//DTD SVG 1.1//EN" "http://www.w3.org/Graphics/SVG/1.1/DTD/svg11.dtd" [
	<!ENTITY ns_extend "http://ns.adobe.com/Extensibility/1.0/">
	<!ENTITY ns_ai "http://ns.adobe.com/AdobeIllustrator/10.0/">
	<!ENTITY ns_graphs "http://ns.adobe.com/Graphs/1.0/">
	<!ENTITY ns_vars "http://ns.adobe.com/Variables/1.0/">
	<!ENTITY ns_imrep "http://ns.adobe.com/ImageReplacement/1.0/">
	<!ENTITY ns_sfw "http://ns.adobe.com/SaveForWeb/1.0/">
	<!ENTITY ns_custom "http://ns.adobe.com/GenericCustomNamespace/1.0/">
	<!ENTITY ns_adobe_xpath "http://ns.adobe.com/XPath/1.0/">
]>
<svg version="1.1" id="Layer_1" xmlns:x="&ns_extend;" xmlns:i="&ns_ai;" xmlns:graph="&ns_graphs;"
	 xmlns="http://www.w3.org/2000/svg" xmlns:xlink="http://www.w3.org/1999/xlink" x="0px" y="0px" viewBox="0 0 439.6 471.5"
	 style="enable-background:new 0 0 439.6 471.5;" xml:space="preserve">
<style type="text/css">
	.st0{stroke:#FFFFFF;stroke-width:1.743;}
	.st1{stroke:#FFFFFF;stroke-width:12.8514;stroke-miterlimit:29.01;}
</style>
<metadata>
	<sfw  xmlns="&ns_sfw;">
		<slices></slices>
		<sliceSourceBounds  bottomLeftOrigin="true" height="471.5" width="439.6" x="89.1" y="0.8"></sliceSourceBounds>
	</sfw>
</metadata>
<g>
	<path class="st0" d="M191.9,1c-18.5,1.6-34.3,18-37.4,40.1l-3.4,25.2c-0.7,1.2-1.4,2.3-2,3.6l-65.7,141c-2.7,5.7-4.2,11.7-4.8,17.5
		H43c-23.3,0-42.2,18.6-42.2,41.9v133c0,23.3,18.9,42.2,42.2,42.2h61.9c14.2,12.8,32.8,20.6,53.5,20.6h84.3
		c44.3,0,79.8-35.5,79.8-79.8V249.2c0-44.3-35.5-79.8-79.8-79.8h-26.1l16.1-116.9c3.5-25.2-11-48-32.6-51.2
		C197.4,0.8,194.6,0.8,191.9,1L191.9,1L191.9,1z"/>
	<g>
		<path class="st1" d="M405.3,202.9v5.2c0,18.6-15,33.6-33.6,33.6H258c-18.6,0-33.6-15-33.6-33.6v-5.2c0-18.6,15-33.6,33.6-33.6
			h113.8C390.3,169.3,405.3,184.3,405.3,202.9z"/>
		<path class="st1" d="M433.2,280L433.2,280c0,20-16.2,36.2-36.2,36.2H260.5c-20,0-36.2-16.2-36.2-36.2v0c0-20,16.2-36.2,36.2-36.2
			H397C417,243.8,433.2,260,433.2,280z"/>
		<path class="st1" d="M410.1,354.4L410.1,354.4c0,20-16.2,36.2-36.2,36.2H260.5c-20,0-36.2-16.2-36.2-36.2v0
			c0-20,16.2-36.2,36.2-36.2h113.4C393.9,318.2,410.1,334.4,410.1,354.4z"/>
		<path class="st1" d="M385.4,428.9L385.4,428.9c0,20-16.2,36.2-36.2,36.2h-88.7c-20,0-36.2-16.2-36.2-36.2v0
			c0-20,16.2-36.2,36.2-36.2h88.7C369.2,392.7,385.4,408.9,385.4,428.9z"/>
	</g>
</g>
</svg>
